<svg t="1701441176685" class="icon" viewBox="0 0 1024 1024" version="1.1" xmlns="http://www.w3.org/2000/svg" p-id="13849" width="16" height="16"><path d="M688.5376 770.816h-328.704c-16.9472 0-30.72-13.7728-30.72-30.72s13.7728-30.72 30.72-30.72h328.704c16.9472 0 30.72 13.7728 30.72 30.72s-13.7216 30.72-30.72 30.72z" fill="#00A0E9" p-id="13850"></path><path d="M638.2592 648.192c-4.9152 0-9.7792-1.1776-14.2848-3.5328l-101.9904-53.6064-101.9904 53.6064a30.68416 30.68416 0 0 1-32.3584-2.3552 30.7712 30.7712 0 0 1-12.2368-30.0544l19.5072-113.6128L312.32 418.2528a30.72512 30.72512 0 0 1-7.7824-31.488 30.65344 30.65344 0 0 1 24.7808-20.8896l114.0736-16.5888 50.9952-103.3728c5.1712-10.496 15.872-17.1008 27.5456-17.1008s22.3744 6.656 27.5456 17.1008l50.9952 103.3728 114.0736 16.5888a30.6688 30.6688 0 0 1 24.7808 20.8896 30.6176 30.6176 0 0 1-7.7824 31.488L649.0624 498.688l19.5072 113.6128a30.67392 30.67392 0 0 1-30.3104 35.8912z m-116.3264-122.5728c4.9152 0 9.8304 1.1776 14.2848 3.5328l61.2352 32.2048-11.6736-68.1472c-1.6896-9.984 1.5872-20.1216 8.8576-27.1872l49.5104-48.2816-68.4544-9.9328a30.77632 30.77632 0 0 1-23.1424-16.7936l-30.6176-62.0032-30.6176 62.0032c-4.4544 9.0624-13.1072 15.36-23.1424 16.7936l-68.4544 9.9328 49.5104 48.2816a30.82752 30.82752 0 0 1 8.8576 27.1872l-11.6736 68.1472 61.2352-32.2048c4.4544-2.3552 9.3696-3.5328 14.2848-3.5328z" fill="#F39800" p-id="13851"></path><path d="M744.704 941.9776H296.9088c-115.2512 0-208.9984-93.7472-208.9984-208.9984V280.6272c0-115.2512 93.7472-208.9984 208.9984-208.9984h447.7952c115.2512 0 208.9984 93.7472 208.9984 208.9984v452.3008c0 115.2512-93.7472 209.0496-208.9984 209.0496zM296.9088 133.0688c-81.3568 0-147.5584 66.2016-147.5584 147.5584v452.3008c0 81.3568 66.2016 147.5584 147.5584 147.5584h447.7952c81.3568 0 147.5584-66.2016 147.5584-147.5584V280.6272c0-81.3568-66.2016-147.5584-147.5584-147.5584H296.9088z" fill="#00A0E9" p-id="13852"></path></svg>
