<svg t="1701441090988" class="icon" viewBox="0 0 1024 1024" version="1.1" xmlns="http://www.w3.org/2000/svg" p-id="8140" width="16" height="16"><path d="M512 896a384 384 0 1 1 384-384 384 384 0 0 1-384 384z m0-682.666667a298.666667 298.666667 0 1 0 298.666667 298.666667 298.666667 298.666667 0 0 0-298.666667-298.666667z" fill="#FC455D" p-id="8141"></path><path d="M512 618.666667a32 32 0 0 1-32-32v-64A32 32 0 0 1 512 490.666667a58.88 58.88 0 1 0-58.88-58.88 32 32 0 0 1-64 0 122.88 122.88 0 1 1 154.88 118.613333v36.266667A32 32 0 0 1 512 618.666667z" fill="#FD8F9E" p-id="8142"></path><path d="M511.975006 681.112994m-30.169889 30.169889a42.666667 42.666667 0 1 0 60.339779-60.339779 42.666667 42.666667 0 1 0-60.339779 60.339779Z" fill="#FF9B57" p-id="8143"></path></svg>
