<svg t="1701437504010" class="icon" viewBox="0 0 1476 1024" version="1.1" xmlns="http://www.w3.org/2000/svg" p-id="4305" width="128" height="128"><path d="M369.938621 909.667913H315.127884c-1.928899-92.766487-7.272717-179.995167-16.005834-261.704343h-0.483139l-83.451407 261.704343H173.44716l-82.949966-261.704343h-0.49046c-6.152711 78.473603-10.028809 165.702284-11.639275 261.704343H28.388119c3.228252-116.755106 11.309862-226.204554 24.24849-328.370304h67.936033l79.081188 241.277049h0.48314l79.567988-241.277049h65.004253c14.234321 119.653944 22.638024 229.136333 25.21843 328.370304m237.781606-242.265289c-22.323251 121.432777-51.765493 209.678979-88.308425 264.731286-28.475962 42.417471-59.667756 63.624377-93.633942 63.624377-9.05521 0-20.222325-2.734132-33.472066-8.165793v-29.273875c6.474804 0.951639 14.069614 1.456739 22.80273 1.456739 15.848447 0 28.618708-4.392179 38.332745-13.154577 11.639275-10.680316 17.458913-22.685606 17.458913-35.986589 0-9.084491-4.538585-27.729292-13.582815-55.930743l-60.158215-187.300825h53.848118l43.175122 140.081238c9.699396 31.806698 13.747521 54.009165 12.126075 66.665961 23.615284-63.240061 40.111577-132.160675 49.496201-206.747199h51.911899" fill="#00758F" p-id="4306"></path><path d="M847.818708 818.650978c0 27.846417-10.204497 50.70771-30.547607 68.59486-20.357751 17.810287-47.710048 26.737391-81.958065 26.737391-32.033628 0-63.079015-10.274039-93.150803-30.661072l14.065954-28.205111c25.877256 12.97157 49.302213 19.446374 70.326111 19.446374 19.724545 0 35.163055-4.3995 46.330171-13.096015 11.145155-8.758738 17.824928-20.972656 17.824928-36.466068 0-19.497616-13.564514-36.162276-38.446209-50.144047-22.971098-12.642156-68.876692-39.028173-68.876692-39.028173-24.874375-18.190943-37.344504-37.71418-37.344504-69.875913 0-26.601966 9.296779-48.101684 27.875698-64.458891 18.61552-16.393809 42.63342-24.588884 72.04638-24.588884 30.404861 0 58.04997 8.136512 82.949967 24.347314l-12.649477 28.183151c-21.30207-9.05887-42.311327-13.604775-63.027773-13.604776-16.807406 0-29.757015 4.044465-38.790263 12.188298-9.077171 8.066969-14.69184 18.450813-14.69184 31.10761 0 19.446374 13.857326 36.316002 39.43811 50.568624 23.260249 12.645816 70.293169 39.544254 70.293169 39.544254 25.584444 18.158001 38.332745 37.520192 38.332745 69.411074" fill="#F29111" p-id="4307"></path><path d="M945.808228 843.979211c-13.268042-21.404554-19.911213-55.755056-19.911213-103.117389 0-82.682775 25.072023-124.053444 75.20143-124.053444 26.20667 0 45.444415 9.897044 57.746177 29.665511 13.249741 21.411874 19.892912 55.465904 19.892912 102.165751 0 83.345262-25.075684 125.038024-75.201429 125.038024-26.20301 0-45.444415-9.886064-57.727877-29.694792m195.027401 73.605604l-60.194817-29.764335c5.358459-4.40682 10.449727-9.161354 15.057855-14.666218 25.558823-30.12303 38.347385-74.71463 38.347385-133.74918 0-108.633234-42.530936-162.982793-127.592808-162.982793-41.725703 0-74.242471 13.776802-97.524681 41.367009-25.566144 30.159631-38.332745 74.586525-38.332745 133.28434 0 57.720556 11.309862 100.064825 33.951546 126.963263 20.628602 24.310712 51.827716 36.484369 93.59002 36.484369 15.584916 0 29.88146-1.925239 42.87499-5.772055l78.39308 45.740887 21.375273-36.908947" fill="#F29111" p-id="4308"></path><path d="M1337.338071 909.667913h-155.724717v-328.370304h52.402359v287.976895h103.322358v40.393409m37.370125-0.032941h8.681874v-33.409844h11.361104v-6.822519h-31.84696v6.822519h11.803982v33.409844z m66.069357 0h8.184094v-40.232363h-12.309082l-10.017829 27.42184-10.907246-27.42184h-11.858884v40.232363h7.741216v-30.62081h0.439218l11.423327 30.62081h5.90016l11.405026-30.62081v30.62081" fill="#F29111" p-id="4309"></path><path d="M1403.114616 471.310119c-31.671273-0.794252-56.197934 2.371777-76.767974 11.108553-5.936762 2.379097-15.420209 2.379097-16.232763 9.919005 3.18433 3.166029 3.568646 8.31952 6.35768 12.700719 4.736233 7.938864 13.030132 18.63016 20.562719 24.200908 8.308539 6.354019 16.620738 12.678758 25.335554 18.227544 15.42387 9.567631 32.83886 15.098116 47.856454 24.621825 8.733116 5.548787 17.407671 12.682418 26.140787 18.652121 4.337277 3.169689 7.082389 8.33782 12.645816 10.299661v-1.200529c-2.789034-3.561325-3.564986-8.718476-6.321078-12.708039-3.952961-3.938321-7.916903-7.532587-11.880845-11.481889-11.481889-15.471452-25.745491-28.948122-41.140079-40.056675-12.671437-8.751417-40.386089-20.657883-45.510298-35.294821l-0.805233-0.808893c8.711156-0.805233 19.014476-3.985903 27.319355-6.390621 13.432748-3.561325 25.701569-2.756093 39.551575-6.317417 6.339379-1.599485 12.671437-3.594267 19.032777-5.545127v-3.597927c-7.162912-7.122651-12.287122-16.661-19.801408-23.399335-20.167423-17.451592-42.351589-34.500568-65.297066-48.804432-12.283461-7.935204-28.109947-13.066733-41.176681-19.83069-4.721593-2.386417-12.627515-3.561325-15.409229-7.550888-7.126311-8.725796-11.101233-20.215005-16.232762-30.547607-11.463588-21.79619-22.564821-45.989777-32.439905-69.037738-7.118991-15.464131-11.474568-30.928263-20.182063-45.217486-40.774064-67.463874-85.076513-108.303821-153.140652-148.382457-14.640598-8.345141-32.048268-11.913786-50.630846-16.276684-9.908024-0.417257-19.794088-1.189549-29.683812-1.577524-6.343039-2.789034-12.682418-10.332602-18.212904-13.904908-22.564821-14.274583-80.706294-45.213826-97.338013-4.355578-10.687636 25.804053 15.830146 51.183529 24.932938 64.283204 6.723694 9.113772 15.43851 19.446374 20.167423 29.746034 2.770733 6.745655 3.564986 13.901247 6.346699 21.031219 6.324738 17.455253 12.25052 36.901626 20.57736 53.174651 4.337277 8.33416 9.080831 17.074597 14.618637 24.577903 3.19531 4.392179 8.718476 6.346699 9.908024 13.513271-5.519505 7.924223-5.951403 19.827029-9.113772 29.753355-14.237981 44.83683-8.707495 100.375937 11.481889 133.302641 6.317418 9.919005 21.375273 31.744476 41.553676 23.392015 17.806627-7.126311 13.850005-29.742374 18.988855-49.569403 1.185888-4.794796 0.391636-7.942524 2.756093-11.108554v0.801573c5.537806 11.090253 11.093913 21.777889 16.232762 32.923044 12.287122 19.420753 33.636773 39.661379 51.454381 53.138049 9.472467 7.170233 16.994074 19.450034 28.863938 23.827573v-1.200529h-0.775952c-2.382757-3.561325-5.936762-5.160811-9.106451-7.924224-7.118991-7.144612-15.013933-15.877728-20.57736-23.809272-16.613418-22.209787-31.272317-46.820631-44.302449-72.211087-6.350359-12.327383-11.877185-25.804053-17.027015-38.094835-2.368117-4.739893-2.368117-11.902806-6.332058-14.274583-5.951403 8.714816-14.636937 16.265704-18.981535 26.94602-7.525267 17.078257-8.308539 38.102155-11.101233 59.934947-1.573864 0.413597-0.775952 0-1.573865 0.786932-12.645816-3.169689-17.001394-16.262044-21.759588-27.333996-11.869865-28.205111-13.864646-73.433578-3.561325-105.972306 2.756093-8.315859 14.662559-34.500568 9.893384-42.435772-2.393738-7.569189-10.296-11.895486-14.640598-17.86885-5.13519-7.539908-10.705937-17.041656-14.230661-25.390456-9.505408-22.209787-14.281903-46.820631-24.537641-69.030418-4.750874-10.332602-13.077714-21.045859-19.783108-30.551267-7.532587-10.713257-15.833806-18.249505-21.777889-30.931923-1.96184-4.373879-4.736233-11.52215-1.581185-16.265704 0.775952-3.18067 2.382757-4.377539 5.556107-5.171791 5.113229-4.366558 19.772127 1.178568 24.907317 3.557665 14.651578 5.936762 26.916739 11.52215 39.167259 19.83801 5.548787 3.974922 11.481889 11.51117 18.593559 13.513272h8.32684c12.656797 2.756093 26.909418 0.768631 38.790263 4.355578 20.958016 6.741995 39.946871 16.65734 56.973886 27.374257 51.820395 32.934024 94.5563 79.761976 123.427558 135.692719 4.758194 9.113772 6.756636 17.455253 11.101233 26.957001 8.308539 19.479315 18.6082 39.317325 26.902098 58.342781 8.304879 18.648461 16.232763 37.677578 28.120928 53.174651 5.918462 8.315859 29.665511 12.682418 40.353148 17.048976 7.898602 3.557665 20.182064 6.738335 27.308374 11.097573 13.451049 8.315859 26.876477 17.854209 39.558895 26.993602 6.317418 4.758194 26.107846 14.669879 27.301055 22.616063" fill="#00758F" p-id="4310"></path><path d="M999.49164 126.483783a63.21078 63.21078 0 0 0-16.221783 1.994782v0.794252h0.768632c3.19531 6.332058 8.740437 10.731558 12.664117 16.276684 3.18433 6.350359 5.962383 12.675097 9.121092 19.032777 0.391636-0.391636 0.768631-0.805233 0.768631-0.805233 5.581728-3.952961 8.345141-10.29234 8.345141-19.830689-2.390078-2.796354-2.763413-5.552447-4.758194-8.341481-2.368117-3.956622-7.514287-5.940422-10.687636-9.121092" fill="#00758F" p-id="4311"></path></svg>
