<svg t="1701437776408" class="icon" viewBox="0 0 1024 1024" version="1.1" xmlns="http://www.w3.org/2000/svg" p-id="5281" width="32" height="32"><path d="M108.608 415.136h804.448v471.232H108.608z" fill="#D9FAFF" p-id="5282"></path><path d="M888.384 927.04H135.616a71.456 71.456 0 0 1-71.52-71.232V182.528A87.424 87.424 0 0 1 145.152 95.68a25.696 25.696 0 0 1 5.952-0.448h172.256c37.408 0 78.08 21.76 98.88 52.864l32.896 49.344c2.432 3.232 11.264 7.936 15.232 8.16l402.528 0.192c23.232 0 45.056 9.088 61.536 25.568a86.08 86.08 0 0 1 25.44 61.376v563.04a71.424 71.424 0 0 1-71.488 71.264z m-737.28-768c-13.664 1.152-23.2 11.36-23.2 23.488v673.28c0 4.096 3.456 7.392 7.712 7.392h752.768c4.256 0 7.68-3.328 7.68-7.392V292.736a23.104 23.104 0 0 0-23.2-23.104L470.24 269.44c-24.736 0-54.72-16.128-68.288-36.704l-32.768-49.216c-8.864-13.248-29.856-24.48-45.824-24.48H151.104z" fill="#40D1E7" p-id="5283"></path><path d="M928 447.136H96a32 32 0 0 1 0-64h832a32 32 0 1 1 0 64z" fill="#40D1E7" p-id="5284"></path><path d="M305.344 689.664l40.416-2.528c0.864 6.56 2.656 11.552 5.344 15.008 4.384 5.568 10.624 8.352 18.752 8.352 6.048 0 10.72-1.408 14.016-4.288a12.672 12.672 0 0 0 4.928-9.888c0-3.552-1.568-6.752-4.672-9.568s-10.368-5.472-21.76-7.968c-18.624-4.192-31.904-9.76-39.84-16.672a33.568 33.568 0 0 1-12-26.528c0-7.072 2.048-13.76 6.144-20 4.096-6.304 10.24-11.232 18.464-14.816s19.488-5.408 33.792-5.408c17.568 0 30.944 3.296 40.16 9.792 9.216 6.56 14.688 16.928 16.448 31.2l-40.032 2.336c-1.056-6.176-3.296-10.688-6.688-13.504s-8.096-4.224-14.112-4.224c-4.928 0-8.672 1.056-11.168 3.136a9.696 9.696 0 0 0-3.744 7.648c0 2.176 1.024 4.16 3.104 5.92 2.016 1.824 6.752 3.488 14.24 5.056 18.56 4 31.872 8.064 39.904 12.128 8.032 4.128 13.888 9.184 17.536 15.264s5.472 12.832 5.472 20.352c0 8.8-2.432 16.928-7.328 24.384s-11.68 13.088-20.448 16.896c-8.736 3.872-19.776 5.792-33.088 5.792-23.36 0-39.552-4.512-48.576-13.504s-14.08-20.512-15.264-34.368zM573.472 715.072c5.312 3.68 8.768 6.016 10.4 6.944 2.432 1.376 5.728 2.976 9.856 4.768l-11.808 23.808c-5.952-2.88-11.808-6.304-17.632-10.272s-9.888-6.944-12.192-8.928c-9.376 4.064-21.12 6.08-35.264 6.08-20.864 0-37.344-5.44-49.408-16.32-14.24-12.864-21.376-30.976-21.376-54.272 0-22.624 6.24-40.192 18.688-52.736 12.48-12.512 29.888-18.784 52.256-18.784 22.816 0 40.416 6.112 52.832 18.368 12.384 12.256 18.592 29.792 18.592 52.608 0.064 20.288-4.96 36.544-14.944 48.736z m-32.544-21.76c3.36-6.048 5.056-15.136 5.056-27.2 0-13.888-2.56-23.776-7.744-29.728-5.12-5.952-12.256-8.896-21.312-8.896-8.448 0-15.296 3.04-20.544 9.088s-7.872 15.52-7.872 28.416c0 15.008 2.56 25.536 7.68 31.584s12.16 9.088 21.088 9.088c2.88 0 5.6-0.288 8.16-0.832-3.552-3.424-9.184-6.688-16.864-9.76l6.656-15.296c3.744 0.672 6.656 1.536 8.768 2.528s6.176 3.616 12.224 7.872c1.472 1.056 3.04 2.08 4.704 3.136zM611.328 597.696h42.464v103.584h66.272v33.856h-108.736v-137.44z" fill="#40D1E7" p-id="5285"></path></svg>
