<svg t="1702815840240" class="icon" viewBox="0 0 1024 1024" version="1.1" xmlns="http://www.w3.org/2000/svg" p-id="5749" width="48" height="48"><path d="M98 98.85l827.99 0 0 618-827.99 0 0-618Z" fill="#01B0F1" p-id="5750"></path><path d="M907 99.85a18 18 0 0 1 18 18v580a18 18 0 0 1-18 18H117a18 18 0 0 1-18-18v-580a18 18 0 0 1 18-18h790m0-2H117a20.06 20.06 0 0 0-20 20v580a20.06 20.06 0 0 0 20 20h790a20.06 20.06 0 0 0 20-20v-580a20.06 20.06 0 0 0-20-20z" fill="#0E6EC5" p-id="5751"></path><path d="M897 127.85l0 560-770 0 0-560 770 0Z" fill="#FFF8B8" p-id="5752"></path><path d="M256.7 877.15l509.95 0 0 48-509.95 0 0-48Z" fill="#01B0F1" p-id="5753"></path><path d="M742.77 878.15A22.9 22.9 0 0 1 765.65 901v0.24a22.9 22.9 0 0 1-22.88 22.88H280.58a22.9 22.9 0 0 1-22.88-22.88V901a22.9 22.9 0 0 1 22.88-22.88h462.19m0-2H280.58A25 25 0 0 0 255.7 901v0.24a25 25 0 0 0 24.88 24.88h462.19a25 25 0 0 0 24.88-24.88V901a25 25 0 0 0-24.88-24.88z" fill="#0E6EC5" p-id="5754"></path><path d="M336.65 336.03h2.38v198.52h-2.38z" fill="#0FCE9A" p-id="5755"></path><path d="M339.02 338.4v-2.38h349.69v2.38zM600.06 536.56v-2.38h173.99v2.38zM246.64 536.56v-2.38h180.94v2.38z" fill="#0FCE9A" p-id="5756"></path><path d="M516.4 278.11h2.38v58.41h-2.38zM246.64 534.18h2.38v35.7h-2.38zM425.2 534.18h2.38v35.7h-2.38zM600.07 534.18h2.38v35.7h-2.38zM771.68 534.18h2.38v35.7h-2.38zM687.52 336.03h2.38v198.15h-2.38z" fill="#0FCE9A" p-id="5757"></path><path d="M453.86 173.19l119.01 0 0 119.01-119.01 0 0-119.01Z" fill="#0E6EC5" p-id="5758"></path><path d="M212.13 549.31l71.41 0 0 71.41-71.41 0 0-71.41Z" fill="#0E6EC5" p-id="5759"></path><path d="M390.69 549.31l71.41 0 0 71.41-71.41 0 0-71.41Z" fill="#0E6EC5" p-id="5760"></path><path d="M565.55 549.31l71.41 0 0 71.41-71.41 0 0-71.41Z" fill="#0E6EC5" p-id="5761"></path><path d="M740.47 549.31l71.41 0 0 71.41-71.41 0 0-71.41Z" fill="#0E6EC5" p-id="5762"></path><path d="M288.75 356.27l98.18 0 0 98.18-98.18 0 0-98.18Z" fill="#0E6EC5" p-id="5763"></path><path d="M639.62 356.27l98.18 0 0 98.18-98.18 0 0-98.18Z" fill="#0E6EC5" p-id="5764"></path><path d="M513.37 232.69m-40.07 0a40.07 40.07 0 1 0 80.14 0 40.07 40.07 0 1 0-80.14 0Z" fill="#FFF8B8" p-id="5765"></path><path d="M520.06 210.37c0 3.7-2.08 36.94-6.69 36.94-4.91 0-6.69-33.25-6.69-36.94a6.69 6.69 0 1 1 13.39 0z" fill="#FFBE00" p-id="5766"></path><path d="M513.37 247.91c-6.06 0-7.29-37.16-7.29-37.54a7.29 7.29 0 0 1 14.58 0c-0.01 0.37-1.58 37.54-7.29 37.54z m0-43.64a6.11 6.11 0 0 0-6.1 6.1c0 7.27 2.36 36.35 6.1 36.35 3.43 0 6.1-29 6.1-36.35a6.11 6.11 0 0 0-6.1-6.1z" fill="#FFBE00" p-id="5767"></path><path d="M513.37 256.39m-5.31 0a5.31 5.31 0 1 0 10.62 0 5.31 5.31 0 1 0-10.62 0Z" fill="#FFBE00" p-id="5768"></path><path d="M513.37 262.3a5.91 5.91 0 1 1 5.91-5.91 5.91 5.91 0 0 1-5.91 5.91z m0-10.62a4.72 4.72 0 1 0 4.72 4.72 4.72 4.72 0 0 0-4.72-4.72z" fill="#FFBE00" p-id="5769"></path><path d="M337.84 405.36m-32.44 0a32.44 32.44 0 1 0 64.88 0 32.44 32.44 0 1 0-64.88 0Z" fill="#FFF8B8" p-id="5770"></path><path d="M343.26 387.29c0 3-1.69 29.91-5.42 29.91-4 0-5.42-26.91-5.42-29.91a5.42 5.42 0 1 1 10.84 0z" fill="#FFBE00" p-id="5771"></path><path d="M337.84 417.68c-4.9 0-5.9-30.09-5.9-30.39a5.9 5.9 0 0 1 11.8 0c0 0.3-1.28 30.39-5.9 30.39z m0-35.33a4.94 4.94 0 0 0-4.94 4.94c0 5.89 1.91 29.43 4.94 29.43 2.78 0 4.94-23.47 4.94-29.43a4.94 4.94 0 0 0-4.94-4.94z" fill="#FFBE00" p-id="5772"></path><path d="M337.84 424.55m-4.3 0a4.3 4.3 0 1 0 8.6 0 4.3 4.3 0 1 0-8.6 0Z" fill="#FFBE00" p-id="5773"></path><path d="M337.84 429.33a4.78 4.78 0 1 1 4.78-4.78 4.79 4.79 0 0 1-4.78 4.78z m0-8.6a3.82 3.82 0 1 0 3.82 3.82 3.82 3.82 0 0 0-3.82-3.82z" fill="#FFBE00" p-id="5774"></path><path d="M247.83 587.4m-23.49 0a23.49 23.49 0 1 0 46.98 0 23.49 23.49 0 1 0-46.98 0Z" fill="#FFF8B8" p-id="5775"></path><path d="M251.75 574.31c0 2.17-1.22 21.66-3.92 21.66-2.88 0-3.92-19.49-3.92-21.66a3.92 3.92 0 1 1 7.85 0z" fill="#FFBE00" p-id="5776"></path><path d="M247.83 596.32c-3.55 0-4.27-21.79-4.27-22a4.27 4.27 0 0 1 8.55 0c-0.01 0.21-0.93 22-4.28 22z m0-25.58a3.58 3.58 0 0 0-3.58 3.58c0 4.26 1.38 21.31 3.58 21.31 2 0 3.58-17 3.58-21.31a3.58 3.58 0 0 0-3.58-3.59z" fill="#FFBE00" p-id="5777"></path><path d="M247.83 601.29m-3.11 0a3.11 3.11 0 1 0 6.22 0 3.11 3.11 0 1 0-6.22 0Z" fill="#FFBE00" p-id="5778"></path><path d="M247.83 604.76a3.46 3.46 0 1 1 3.46-3.46 3.47 3.47 0 0 1-3.46 3.46z m0-6.23a2.77 2.77 0 1 0 2.77 2.77 2.77 2.77 0 0 0-2.77-2.77z" fill="#FFBE00" p-id="5779"></path><path d="M425.73 587.4m-23.49 0a23.49 23.49 0 1 0 46.98 0 23.49 23.49 0 1 0-46.98 0Z" fill="#FFF8B8" p-id="5780"></path><path d="M429.66 574.31c0 2.17-1.22 21.66-3.92 21.66-2.88 0-3.92-19.49-3.92-21.66a3.92 3.92 0 1 1 7.85 0z" fill="#FFBE00" p-id="5781"></path><path d="M425.73 596.32c-3.55 0-4.27-21.79-4.27-22a4.27 4.27 0 0 1 8.55 0c-0.01 0.21-0.93 22-4.28 22z m0-25.58a3.58 3.58 0 0 0-3.58 3.58c0 4.26 1.38 21.31 3.58 21.31 2 0 3.58-17 3.58-21.31a3.58 3.58 0 0 0-3.58-3.59z" fill="#FFBE00" p-id="5782"></path><path d="M425.73 601.29m-3.11 0a3.11 3.11 0 1 0 6.22 0 3.11 3.11 0 1 0-6.22 0Z" fill="#FFBE00" p-id="5783"></path><path d="M425.73 604.76a3.46 3.46 0 1 1 3.46-3.46 3.47 3.47 0 0 1-3.46 3.46z m0-6.23a2.77 2.77 0 1 0 2.77 2.77 2.77 2.77 0 0 0-2.77-2.77z" fill="#FFBE00" p-id="5784"></path><path d="M601.26 587.4m-23.49 0a23.49 23.49 0 1 0 46.98 0 23.49 23.49 0 1 0-46.98 0Z" fill="#FFF8B8" p-id="5785"></path><path d="M605.18 574.31c0 2.17-1.22 21.66-3.92 21.66-2.88 0-3.92-19.49-3.92-21.66a3.92 3.92 0 1 1 7.85 0z" fill="#FFBE00" p-id="5786"></path><path d="M601.26 596.32c-3.55 0-4.27-21.79-4.27-22a4.27 4.27 0 0 1 8.55 0c-0.01 0.21-0.94 22-4.28 22z m0-25.58a3.58 3.58 0 0 0-3.58 3.58c0 4.26 1.38 21.31 3.58 21.31 2 0 3.58-17 3.58-21.31a3.58 3.58 0 0 0-3.58-3.59z" fill="#FFBE00" p-id="5787"></path><path d="M601.26 601.29m-3.11 0a3.11 3.11 0 1 0 6.22 0 3.11 3.11 0 1 0-6.22 0Z" fill="#FFBE00" p-id="5788"></path><path d="M601.26 604.76a3.46 3.46 0 1 1 3.46-3.46 3.47 3.47 0 0 1-3.46 3.46z m0-6.23a2.77 2.77 0 1 0 2.77 2.77 2.77 2.77 0 0 0-2.77-2.77z" fill="#FFBE00" p-id="5789"></path><path d="M776.17 587.4m-23.49 0a23.49 23.49 0 1 0 46.98 0 23.49 23.49 0 1 0-46.98 0Z" fill="#FFF8B8" p-id="5790"></path><path d="M780.1 574.31c0 2.17-1.22 21.66-3.92 21.66-2.88 0-3.92-19.49-3.92-21.66a3.92 3.92 0 1 1 7.85 0z" fill="#FFBE00" p-id="5791"></path><path d="M776.17 596.32c-3.55 0-4.27-21.79-4.27-22a4.27 4.27 0 0 1 8.55 0c-0.01 0.21-0.93 22-4.28 22z m0-25.58a3.58 3.58 0 0 0-3.58 3.58c0 4.26 1.38 21.31 3.58 21.31 2 0 3.58-17 3.58-21.31a3.58 3.58 0 0 0-3.58-3.59z" fill="#FFBE00" p-id="5792"></path><path d="M776.17 601.29m-3.11 0a3.11 3.11 0 1 0 6.22 0 3.11 3.11 0 1 0-6.22 0Z" fill="#FFBE00" p-id="5793"></path><path d="M776.17 604.76a3.46 3.46 0 1 1 3.46-3.46 3.47 3.47 0 0 1-3.46 3.46z m0-6.23a2.77 2.77 0 1 0 2.77 2.77 2.77 2.77 0 0 0-2.77-2.77z" fill="#FFBE00" p-id="5794"></path><path d="M688.71 405.36m-32.44 0a32.44 32.44 0 1 0 64.88 0 32.44 32.44 0 1 0-64.88 0Z" fill="#FFF8B8" p-id="5795"></path><path d="M694.13 387.29c0 3-1.69 29.91-5.42 29.91-4 0-5.42-26.91-5.42-29.91a5.42 5.42 0 0 1 10.84 0z" fill="#FFBE00" p-id="5796"></path><path d="M688.71 417.68c-4.9 0-5.9-30.09-5.9-30.39a5.9 5.9 0 0 1 11.8 0c0 0.3-1.27 30.39-5.9 30.39z m0-35.33a4.94 4.94 0 0 0-4.94 4.94c0 5.89 1.91 29.43 4.94 29.43 2.78 0 4.94-23.47 4.94-29.43a4.94 4.94 0 0 0-4.94-4.94z" fill="#FFBE00" p-id="5797"></path><path d="M688.71 424.55m-4.3 0a4.3 4.3 0 1 0 8.6 0 4.3 4.3 0 1 0-8.6 0Z" fill="#FFBE00" p-id="5798"></path><path d="M688.71 429.33a4.78 4.78 0 1 1 4.78-4.78 4.79 4.79 0 0 1-4.78 4.78z m0-8.6a3.82 3.82 0 1 0 3.82 3.82 3.82 3.82 0 0 0-3.82-3.82z" fill="#FFBE00" p-id="5799"></path><path d="M791.5 701.16m-130 0a130 130 0 1 0 260 0 130 130 0 1 0-260 0Z" fill="#0FCE9A" p-id="5800"></path><path d="M721.77 707.58h-7.35v10.95a5 5 0 0 1-1.13 3.56 4.07 4.07 0 0 1-5.78 0 5 5 0 0 1-1.11-3.52v-29.8a4.8 4.8 0 0 1 1.22-3.69 5.62 5.62 0 0 1 3.87-1.11h10.3a27.62 27.62 0 0 1 7 0.69 10.55 10.55 0 0 1 4.2 2.19 9.88 9.88 0 0 1 2.69 3.75 12.91 12.91 0 0 1 0.92 5q0 5.91-3.73 9t-11.1 2.98z m-1.95-17.73h-5.4v11.82h5.4a16.53 16.53 0 0 0 4.74-0.58 5.09 5.09 0 0 0 3.91-5.36 5.78 5.78 0 0 0-1.54-4.17q-1.73-1.71-7.11-1.71zM760.74 683.31a21.57 21.57 0 0 1 10.58 2.44 16 16 0 0 1 6.69 6.94 23.2 23.2 0 0 1 2.27 10.57 25.29 25.29 0 0 1-1.24 8.15 17.55 17.55 0 0 1-3.73 6.36 16.32 16.32 0 0 1-6.11 4.12 24.62 24.62 0 0 1-16.62 0 16.52 16.52 0 0 1-6.14-4.13 17.54 17.54 0 0 1-3.72-6.41 25.31 25.31 0 0 1-1.26-8.1 24.45 24.45 0 0 1 1.31-8.18 17.46 17.46 0 0 1 3.8-6.33 16.44 16.44 0 0 1 6.05-4 22.27 22.27 0 0 1 8.12-1.43z m11.4 19.89a17.76 17.76 0 0 0-1.41-7.36 10.31 10.31 0 0 0-4-4.71 11.24 11.24 0 0 0-6-1.6 11.07 11.07 0 0 0-4.45 0.88 9.76 9.76 0 0 0-3.51 2.57 12.2 12.2 0 0 0-2.32 4.31 19.08 19.08 0 0 0-0.85 5.9 19.56 19.56 0 0 0 0.85 6 12.15 12.15 0 0 0 2.4 4.42 10.09 10.09 0 0 0 3.57 2.63 11.51 11.51 0 0 0 10.08-0.63 10.48 10.48 0 0 0 4.11-4.64 17.6 17.6 0 0 0 1.53-7.77zM787.46 718.53v-30.47a5.05 5.05 0 0 1 1.11-3.56 3.74 3.74 0 0 1 2.86-1.19 3.87 3.87 0 0 1 2.93 1.17 5 5 0 0 1 1.12 3.58v30.47a5.06 5.06 0 0 1-1.12 3.59 3.85 3.85 0 0 1-2.93 1.19 3.73 3.73 0 0 1-2.85-1.2 5.06 5.06 0 0 1-1.12-3.58zM814.92 688l15.43 22.8v-23a5 5 0 0 1 1-3.36 3.36 3.36 0 0 1 2.66-1.12 3.47 3.47 0 0 1 2.73 1.12 4.93 4.93 0 0 1 1 3.36v30.42q0 5.09-4.32 5.09a5.84 5.84 0 0 1-1.95-0.3 5 5 0 0 1-1.62-1 9.5 9.5 0 0 1-1.41-1.54q-0.65-0.88-1.3-1.81l-15.05-22.53v22.67a4.76 4.76 0 0 1-1.05 3.35 3.53 3.53 0 0 1-2.7 1.13 3.48 3.48 0 0 1-2.73-1.15 4.85 4.85 0 0 1-1-3.34V689a8.27 8.27 0 0 1 0.43-3 4.29 4.29 0 0 1 1.7-1.94 4.72 4.72 0 0 1 2.57-0.75 4.53 4.53 0 0 1 1.85 0.34 4.44 4.44 0 0 1 1.35 0.92 9.58 9.58 0 0 1 1.19 1.5zM872.24 690.43h-8.75v28.1a5.09 5.09 0 0 1-1.11 3.6 3.76 3.76 0 0 1-2.86 1.17 3.81 3.81 0 0 1-2.9-1.19 5.06 5.06 0 0 1-1.12-3.59v-28.1h-8.76a4.5 4.5 0 0 1-3.05-0.88 3 3 0 0 1-1-2.33 2.93 2.93 0 0 1 1-2.38 4.58 4.58 0 0 1 3-0.87h25.51a4.57 4.57 0 0 1 3.1 0.9 3 3 0 0 1 1 2.35 2.93 2.93 0 0 1-1 2.33 4.62 4.62 0 0 1-3.06 0.89z" fill="#FFFFFF" p-id="5801"></path></svg>